# xmcd
#
# Track frame offsets: 
#        150
#        7410
#        28440
#        47208
#        67447
#        95461
#        108772
#        142726
#        163689
#        169607
#
# Disc length: 2525 seconds
#
# Revision: 0
# Processed by: cddbd v1.5.2PL0 Copyright (c) Steve Scherf et al.
# Submitted via: ExactAudioCopy v0.95b4
#
DISCID=8c09db0a
DTITLE=Blue Shade - Director's Cut
DYEAR=2006
DGENRE=Blues
TTITLE0=the gathering
TTITLE1=on the train
TTITLE2=no woman no style
TTITLE3=hot wheels
TTITLE4=mona lisa
TTITLE5=groaning blues
TTITLE6=red lights
TTITLE7=secret island
TTITLE8=the revelation
TTITLE9=the keys
EXTD=
EXTT0=
EXTT1=
EXTT2=
EXTT3=
EXTT4=
EXTT5=
EXTT6=
EXTT7=
EXTT8=
EXTT9=
PLAYORDER=
